<svg id="Layer_1" data-name="Layer 1" xmlns="http://www.w3.org/2000/svg" viewBox="0 0 92.81 60.06"><defs><style>.cls-1{isolation:isolate;font-size:27.04px;font-family:CenturyGothic, Century Gothic;}.cls-1,.cls-2{fill:#ed695a;}.cls-3{fill:#2d83b8;}</style></defs><text class="cls-1" transform="translate(65.13 32.12) rotate(180) scale(0.9 1)">v</text><text class="cls-1" transform="translate(92.81 32.12) rotate(180) scale(0.9 1)">v</text><path class="cls-2" d="M27.48,35l-1.1.85A6.07,6.07,0,0,0,24.17,34a6.38,6.38,0,0,0-2.82-.62,6.21,6.21,0,0,0-3.12.81A5.84,5.84,0,0,0,16,36.44a6.07,6.07,0,0,0-.79,3.06A5.73,5.73,0,0,0,17,43.8a6.14,6.14,0,0,0,4.45,1.72A6.25,6.25,0,0,0,26.4,43.2l1.1.85a7.06,7.06,0,0,1-2.62,2.07,8.47,8.47,0,0,1-3.51.73,7.3,7.3,0,0,1-5.83-2.46,7.44,7.44,0,0,1-1.79-5,7,7,0,0,1,2.17-5.2,7.47,7.47,0,0,1,5.43-2.11,7.93,7.93,0,0,1,3.55.78A6.86,6.86,0,0,1,27.48,35Z" transform="translate(0 0)"/><path class="cls-2" d="M32,32.43h1.4V46.49H32Z" transform="translate(0 0)"/><path class="cls-2" d="M37.79,46.49V32.43h.3l9.36,10.78V32.43h1.39V46.49h-.31L39.24,35.84V46.49Z" transform="translate(0 0)"/><path class="cls-2" d="M68.77,33.78V32.43h7.42L70.31,45.12h5.58v1.37H68.14l5.93-12.71Z" transform="translate(0 0)"/><path class="cls-3" d="M46.52,58.44a8.51,8.51,0,0,1-2.07.32l-2.08.13-4.18.22-8.34.38c-5.56.21-11.12.4-16.69.52l-2.08.05H10A8.45,8.45,0,0,1,8.77,60a9.35,9.35,0,0,1-4.51-1.9A10.89,10.89,0,0,1,.1,49.57L0,32.88v-5.3a9.89,9.89,0,0,1,.13-1.22A11.43,11.43,0,0,1,.83,24a11.21,11.21,0,0,1,2.84-4,9.85,9.85,0,0,1,4.44-2.26,10.88,10.88,0,0,1,1.26-.17,9.25,9.25,0,0,1,1.18,0h2.09l4.17.06c2.78,0,5.56.1,8.34.17,5.57.12,11.13.31,16.69.52l2.09.09,1,.06a8.51,8.51,0,0,1,1.13.14,8.29,8.29,0,0,1,4,1.94A9.2,9.2,0,0,1,52.6,24a9.68,9.68,0,0,1,.65,4.16,9.14,9.14,0,0,0-3.77-6.89,7.5,7.5,0,0,0-3.58-1.35,7.37,7.37,0,0,0-.94,0H44L41.84,20c-5.56.21-11.12.4-16.69.52q-4.17.12-8.34.17l-4.17.07H10.55a4.75,4.75,0,0,0-.89,0l-.81.13A7.09,7.09,0,0,0,6,22.52a7.49,7.49,0,0,0-1.89,2.75,7.77,7.77,0,0,0-.43,1.64,6.11,6.11,0,0,0-.08.85v5.12L3.5,49.57a7.63,7.63,0,0,0,2.72,6.06,6.46,6.46,0,0,0,3,1.41,6,6,0,0,0,.84.11h3.08c5.57.12,11.13.31,16.69.52l8.34.38,4.18.22,2.08.14A8.12,8.12,0,0,0,46.52,58.44Z" transform="translate(0 0)"/><polygon class="cls-3" points="14.36 0 26.09 18.89 25.32 18.92 32.01 8.03 26.1 19.36 25.77 19.99 25.34 19.39 12.31 1.37 14.36 0"/></svg>