<svg id="Layer_1" data-name="Layer 1" xmlns="http://www.w3.org/2000/svg" viewBox="0 0 92.81 60.08"><defs><style>.cls-1{font-size:27.04px;font-family:CenturyGothic, Century Gothic;}.cls-1,.cls-2{fill:#ed695a;}.cls-3{fill:#2d83b8;}</style></defs><text class="cls-1" transform="translate(65.13 32.12) rotate(180) scale(0.9 1)">v</text><text class="cls-1" transform="translate(92.81 32.12) rotate(180) scale(0.9 1)">v</text><path class="cls-2" d="M27.48,35l-1.1.85a6.08,6.08,0,0,0-2.21-1.81,6.33,6.33,0,0,0-2.82-.62,6.2,6.2,0,0,0-3.12.81A5.82,5.82,0,0,0,16,36.44a6.06,6.06,0,0,0-.79,3.06A5.75,5.75,0,0,0,17,43.8a6.15,6.15,0,0,0,4.45,1.72,6.26,6.26,0,0,0,4.95-2.32l1.1.85a7.1,7.1,0,0,1-2.62,2.07,8.35,8.35,0,0,1-3.51.73,7.3,7.3,0,0,1-5.83-2.46,7.41,7.41,0,0,1-1.79-5,7,7,0,0,1,2.17-5.2,7.44,7.44,0,0,1,5.43-2.11,7.91,7.91,0,0,1,3.55.78A6.84,6.84,0,0,1,27.48,35Z"/><path class="cls-2" d="M32,32.43h1.4V46.49H32Z"/><path class="cls-2" d="M37.79,46.49V32.43h.3l9.36,10.78V32.43h1.39V46.49h-.31L39.24,35.84V46.49Z"/><path class="cls-2" d="M68.77,33.78V32.43h7.42L70.31,45.12h5.58v1.37H68.14l5.93-12.71Z"/><path class="cls-3" d="M46.52,58.44a8.43,8.43,0,0,1-2.07.32l-2.08.13-4.18.22-8.34.38c-5.56.21-11.12.4-16.69.52l-2.08.05c-.36,0-.66,0-1.08,0A8.48,8.48,0,0,1,8.77,60a9.31,9.31,0,0,1-4.51-1.9A10.9,10.9,0,0,1,.1,49.57L0,32.88l0-4.17v-.52l0-.61a10.1,10.1,0,0,1,.13-1.22A11.49,11.49,0,0,1,.83,24a11.2,11.2,0,0,1,2.84-4,9.89,9.89,0,0,1,4.44-2.26,10.88,10.88,0,0,1,1.26-.17c.41,0,.87-.05,1.18,0l2.09,0,4.17.06c2.78,0,5.56.1,8.34.17,5.57.12,11.13.31,16.69.52l2.09.09,1,.06a8.51,8.51,0,0,1,1.13.14,8.36,8.36,0,0,1,4,1.94A9.24,9.24,0,0,1,52.6,24a9.79,9.79,0,0,1,.65,4.16,9.14,9.14,0,0,0-3.77-6.89,7.52,7.52,0,0,0-3.58-1.35,7.39,7.39,0,0,0-.94,0c-.32,0-.69,0-1,0L41.84,20c-5.56.21-11.12.4-16.69.52q-4.17.12-8.34.17l-4.17.07-2.09,0c-.38,0-.61,0-.89.05s-.54.09-.81.13A7,7,0,0,0,6,22.52a7.52,7.52,0,0,0-1.89,2.75,7.77,7.77,0,0,0-.43,1.64,6,6,0,0,0-.08.85l0,.43v.52l0,4.17-.1,16.69a7.63,7.63,0,0,0,2.72,6.06,6.45,6.45,0,0,0,3,1.41,5.85,5.85,0,0,0,.84.11c.28,0,.68,0,1,0l2.08,0c5.57.12,11.13.31,16.69.52l8.34.38,4.18.22,2.08.14A8.44,8.44,0,0,0,46.52,58.44Z"/><polygon class="cls-3" points="14.36 0 26.09 18.89 25.32 18.92 32.01 8.03 26.1 19.36 25.77 19.99 25.34 19.39 12.31 1.37 14.36 0"/></svg>