<svg xmlns="http://www.w3.org/2000/svg" xmlns:xlink="http://www.w3.org/1999/xlink" width="774" height="560" viewBox="0 0 774 560">
  <defs>
    <clipPath id="clip-path">
      <rect id="Rectangle_34" data-name="Rectangle 34" width="277" height="178" transform="translate(137.042 148.708)" fill="#fff" stroke="#707070" stroke-width="1"/>
    </clipPath>
    <clipPath id="clip-path-2">
      <path id="Path_17" data-name="Path 17" d="M844.537,372.36l-2.162-5.265-28.821,11.832a3.56,3.56,0,0,0-2.206,3.292v31.139h5.693v-29.7Z" transform="translate(-811.348 -367.095)" fill="none"/>
    </clipPath>
  </defs>
  <g id="Group_20" data-name="Group 20" transform="translate(-304 -287)">
    <g id="Group_24" data-name="Group 24">
      <g id="Group_19" data-name="Group 19" transform="translate(31.013 -1199.5)">
        <path id="Path_33" data-name="Path 33" d="M290.665,678.8v2.135a13.358,13.358,0,0,0,13.347,13.347h113.18a13.352,13.352,0,0,0,13.347-13.347V678.8a13.251,13.251,0,0,0-3.1-8.542,13.731,13.731,0,0,0-2.253-2.135h-58.7a2.67,2.67,0,0,1-2.669-2.669h-59.8A13.365,13.365,0,0,0,290.665,678.8Z" transform="translate(23.578 1245.089)" fill="#3f3d56"/>
        <rect id="Rectangle_50" data-name="Rectangle 50" width="13.88" height="98.231" transform="translate(390.591 2037.068) rotate(180)" fill="#3f3d56"/>
        <path id="Path_34" data-name="Path 34" d="M308.122,764.49c0,1.5,21.034.58,46.98.58s46.98.92,46.98-.58S381.049,751.1,355.1,751.1,308.122,762.991,308.122,764.49Z" transform="translate(29.081 1272.09)" fill="#3f3d56"/>
        <path id="Path_35" data-name="Path 35" d="M308.64,680.711,356,688.271l55.031,8.787,19.08,3.043a7.005,7.005,0,0,0,8.008-5.808l.865-5.4.8-5.029.662-4.143a6.926,6.926,0,0,0-1.324-5.3,6.76,6.76,0,0,0-2.595-2.135H362.678a2.67,2.67,0,0,1-2.669-2.669v-2.1a2.67,2.67,0,0,1,2.669-2.669H391.7L378.32,662.71l-41.129-6.567-24.013-3.833a7.02,7.02,0,0,0-8.029,5.819l-2.328,14.564a7.033,7.033,0,0,0,5.819,8.019Z" transform="translate(27.384 1240.92)" fill="#3f3d56"/>
        <path id="Path_36" data-name="Path 36" d="M385.078,673.874v81.372a7,7,0,0,0,6.993,6.994h14.767a7,7,0,0,0,6.994-6.993V673.874a6.9,6.9,0,0,0-1.463-4.26,6.748,6.748,0,0,0-2.712-2.135H389.242a6.787,6.787,0,0,0-2.7,2.135,6.922,6.922,0,0,0-1.463,4.26Z" transform="translate(53.341 1245.729)" fill="#ed695a"/>
        <path id="Path_37" data-name="Path 37" d="M351.251,572.223a7.046,7.046,0,0,0,.555,2.1,6.9,6.9,0,0,0,2,2.616l.032.021,42.133,34.178.619.491,8.724,7.079,2.637,2.135h45.623l-2.627-2.135-36.057-29.256-24.163-19.6-18.8-15.247a6.925,6.925,0,0,0-3.865-1.537.033.033,0,0,0-.021-.011,7.094,7.094,0,0,0-1.26.021,6.723,6.723,0,0,0-1.826.448,5.134,5.134,0,0,0-1.132.576,6.74,6.74,0,0,0-1.74,1.527l-9.161,11.286-.139.182A6.941,6.941,0,0,0,351.251,572.223Z" transform="translate(42.665 1209.652)" fill="#ed695a"/>
        <path id="Path_38" data-name="Path 38" d="M353.512,576.985a17.311,17.311,0,0,0,3.406,5.371l28.049,30.131a6.993,6.993,0,0,0,9.9-.438l.78-.886.341-.384L408.1,597.187l5.21-5.851a6.145,6.145,0,0,0,.9-1.2c.128-.214.246-.438.353-.662a7.083,7.083,0,0,0,.587-3.171,6.9,6.9,0,0,0-2.3-4.88L380.333,556.57a17.419,17.419,0,0,0-12.6-3.481.034.034,0,0,0-.021-.011,18.322,18.322,0,0,0-2.947.619c-.427.118-.843.267-1.271.427a17.21,17.21,0,0,0-7.1,5.018,17.433,17.433,0,0,0-2.883,17.842Z" transform="translate(42.988 1209.632)" fill="#2f2e41"/>
        <circle id="Ellipse_5" data-name="Ellipse 5" cx="53.517" cy="53.517" r="53.517" transform="translate(329.665 1630.872)" fill="#ed695a"/>
        <path id="Path_39" data-name="Path 39" d="M333.66,675.1l19.849,3.16.449.075,30.174,4.815,19.016,3.043,27.953,4.463.8.128,4.153.662,19.08,3.043a7,7,0,0,0,8.008-5.808l1.666-10.421.662-4.143c0-.021.01-.043.01-.064H354.791a2.67,2.67,0,0,1-2.669-2.669v-2.1a2.67,2.67,0,0,1,2.669-2.669H389.77v-11.67l-2.135-.342-10.549-1.687-38.9-6.2a7.008,7.008,0,0,0-8.019,5.808l-.865,5.392-1.463,9.182A7.013,7.013,0,0,0,333.66,675.1Z" transform="translate(35.271 1239.154)" fill="#3f3d56"/>
        <path id="Path_40" data-name="Path 40" d="M287.7,660.609c0,43.628,4.432,69.723,72.766,62.249l.277-.032a202.9,202.9,0,0,0,36.015-6.887,106.948,106.948,0,0,0,17.767-6.962c1.345-.683,2.637-1.4,3.908-2.135H367.418a2.67,2.67,0,0,1-2.669-2.669v-2.1a2.67,2.67,0,0,1,2.669-2.669H402.4V631.962a7.838,7.838,0,0,1,7.827-7.827h28.455c-.246-.7-.491-1.42-.758-2.135a174.933,174.933,0,0,0-9.471-21.547,164.365,164.365,0,0,0-17.7-27.313A113.758,113.758,0,0,0,394.9,556.921c-10.71-8.841-22.369-14.308-34.2-14.308C317.074,542.614,287.7,616.981,287.7,660.609Z" transform="translate(22.643 1206.366)" fill="#2d83b8"/>
        <path id="Path_41" data-name="Path 41" d="M342.238,516.746l-.056-2c3.721-.1,7-.337,9.465-2.138a6.148,6.148,0,0,0,2.381-4.528,3.514,3.514,0,0,0-1.153-2.894c-1.636-1.382-4.269-.935-6.188-.055l-1.655.759,3.173-23.189,1.981.271-2.7,19.726a7.06,7.06,0,0,1,6.678.961,5.471,5.471,0,0,1,1.86,4.492,8.132,8.132,0,0,1-3.2,6.073C349.662,516.538,345.546,516.653,342.238,516.746Z" transform="translate(39.819 1187.478)" fill="#2f2e41"/>
        <rect id="Rectangle_51" data-name="Rectangle 51" width="10.771" height="2" transform="translate(399.807 1672.152)" fill="#2f2e41"/>
        <rect id="Rectangle_52" data-name="Rectangle 52" width="10.771" height="2" transform="translate(365.809 1672.152)" fill="#2f2e41"/>
        <path id="Path_42" data-name="Path 42" d="M325.116,501.185c4.162-6.265,11.486-8.921,18.708-9.567,8.129-.727,15.983.84,23.92,2.363,8.735,1.676,17.979,3.244,26.78,1.125a26.4,26.4,0,0,0,17.945-14.5,33.769,33.769,0,0,0,1.966-22.517,40.931,40.931,0,0,0-13.387-20.32c-12.666-10.832-29.807-15.7-46.293-15.242a78.266,78.266,0,0,0-45.373,15.954,73.695,73.695,0,0,0-26.144,40.97,76.826,76.826,0,0,0,3.72,48.322c3.608,8.369,8.825,15.914,12.851,24.072,3.749,7.6,6.636,16.427,4.3,24.9a23.1,23.1,0,0,1-15.6,16.058,16.381,16.381,0,0,1-18.216-7.436c-3.771-5.946-3.861-13.735,1.8-18.536a13.9,13.9,0,0,1,20.049,2,14.305,14.305,0,0,1,2.862,10.489c-.279,1.888,2.611,2.7,2.893.8a16.922,16.922,0,0,0-31.552-10.927c-3.414,6.42-1.572,14.163,2.762,19.65a19.153,19.153,0,0,0,19.528,7.022c7.89-1.822,14.344-8.093,17.379-15.461,3.379-8.2,1.831-17.358-1.463-25.318-3.561-8.6-8.848-16.322-13.03-24.615a70.1,70.1,0,0,1-7.113-23.952,75.788,75.788,0,0,1,10.809-48.005,70.438,70.438,0,0,1,38.8-29.486,73.613,73.613,0,0,1,48.711,1.288c15.243,6.006,29.962,19.095,29.785,36.674-.076,7.509-2.863,15.167-8.615,20.176-6.874,5.986-16.445,6.5-25.086,5.563-8.7-.94-17.14-3.48-25.873-4.127-7.6-.563-15.791.022-22.574,3.8a22.571,22.571,0,0,0-7.841,7.274c-1.071,1.613,1.526,3.117,2.59,1.514Z" transform="translate(15.354 1168.5)" fill="#2f2e41"/>
        <path id="Path_43" data-name="Path 43" d="M317.229,586.3a5.622,5.622,0,0,0,.288.566,6.05,6.05,0,0,0,.353.555l23.4,33.687,1.815,2.616,19.091,27.462L380.6,677.694l7.453,10.741a6.228,6.228,0,0,0,.673.822,6.973,6.973,0,0,0,4.367,2.136h.192V645.577l-2.135-3.075L367.2,608.035l-25.722-37.019a7.008,7.008,0,0,0-9.738-1.762l-7.891,5.478-4.239,2.947a6.994,6.994,0,0,0-2.38,8.617Z" transform="translate(31.757 1214.372)" fill="#ed695a"/>
        <path id="Path_44" data-name="Path 44" d="M314.745,587.361l1.057,2.125.011.011.288.566,17.159,34.061a7.019,7.019,0,0,0,9.621,2.349l1.11-.694.277-.171,22.124-13.88a6.99,6.99,0,0,0,2.327-9.652l-24.3-32.95a17.467,17.467,0,0,0-21.333-5.509,17.183,17.183,0,0,0-2.371,1.3,17.471,17.471,0,0,0-5.969,22.443Z" transform="translate(30.579 1212.485)" fill="#2f2e41"/>
        <path id="Path_45" data-name="Path 45" d="M410.1,667.478v80.39a7,7,0,0,0,6.994,6.994h14.767a7,7,0,0,0,6.993-6.994v-80.39Z" transform="translate(61.229 1245.729)" fill="#ed695a"/>
        <path id="Path_46" data-name="Path 46" d="M344.658,683.04v2.1a4.822,4.822,0,0,0,3.865,4.719c.149.021.3.053.448.064s.32.021.491.021h164.6a9.974,9.974,0,0,0,9.972-9.96V612.934a9.975,9.975,0,0,0-9.973-9.962h-121.8a9.973,9.973,0,0,0-9.962,9.962v65.3H349.463a4.8,4.8,0,0,0-4.8,4.8Z" transform="translate(40.599 1225.394)" fill="#fff"/>
        <path id="Path_47" data-name="Path 47" d="M344.658,683.04v2.1a4.822,4.822,0,0,0,3.865,4.719c.149.021.3.053.448.064s.32.021.491.021h164.6a9.974,9.974,0,0,0,9.972-9.96V612.934a9.975,9.975,0,0,0-9.973-9.962h-121.8a9.973,9.973,0,0,0-9.962,9.962v65.3H349.463a4.8,4.8,0,0,0-4.8,4.8Zm2.135,2.1v-2.1a2.67,2.67,0,0,1,2.669-2.669h34.979V612.934a7.838,7.838,0,0,1,7.827-7.826h121.8a7.84,7.84,0,0,1,7.837,7.827v67.053a7.84,7.84,0,0,1-7.837,7.826h-164.6a2.67,2.67,0,0,1-2.669-2.669Z" transform="translate(40.599 1225.394)" fill="#3f3d56"/>
        <circle id="Ellipse_6" data-name="Ellipse 6" cx="8.211" cy="8.211" r="8.211" transform="translate(485.558 1863.645)" fill="#ed695a"/>
        <rect id="Rectangle_53" data-name="Rectangle 53" width="2.135" height="9.61" transform="translate(422.938 1904.762)" fill="#3f3d56"/>
        <path id="Path_65" data-name="Path 65" d="M863.292,764.13H166.948c-1.009,0-1.828-.589-1.828-1.315s.818-1.315,1.828-1.315H863.292c1.01,0,1.828.589,1.828,1.315S864.3,764.13,863.292,764.13Z" transform="translate(107.867 1275.369)" fill="#3f3d56"/>
      </g>
      <text id="One_tap_to_unlock_the_movies_you_ve_been_waiting_to_watch." data-name="One tap to unlock the movies you&apos;ve been waiting to watch." transform="translate(521 287)" fill="#ed695a" font-size="40" font-family="SegoeUI, Segoe UI"><tspan x="0" y="43">One tap to unlock the movies </tspan><tspan x="0" y="96">you&apos;ve been waiting to watch.</tspan></text>
    </g>
    <g id="Group_3" data-name="Group 3" transform="translate(518.958 520.292)" clip-path="url(#clip-path)">
      <g id="undraw_movie_night_fldd" transform="translate(137.006 157.786)">
        <path id="Path_13" data-name="Path 13" d="M5.781,263.546H96.838a4.47,4.47,0,0,1,4.47,4.47v7.1h-100v-7.1a4.47,4.47,0,0,1,4.47-4.47Z" transform="translate(-1.006 -202.236)" fill="#3f3d56"/>
        <path id="Path_14" data-name="Path 14" d="M334.34,488a4.1,4.1,0,0,0-1.322.225,2.475,2.475,0,0,0-4.877.6c0,.012,0,.024,0,.036a4.25,4.25,0,0,0-.912.189,2.488,2.488,0,0,0-1.226-1.579,4.146,4.146,0,0,0,1.788-1.957,3.323,3.323,0,1,0-.068-6.605,4.1,4.1,0,0,0-1.322.225,2.471,2.471,0,1,0-4.751,1.343c-.1.069-.191.146-.283.223a2.347,2.347,0,0,0-1.69-.562,4.116,4.116,0,0,0-8,1.281,4.23,4.23,0,0,0-.975.195,2.485,2.485,0,0,0-.143-.408,3.106,3.106,0,0,0,1.051-2.3,3.531,3.531,0,0,0-3.719-3.306,4.1,4.1,0,0,0-1.322.225,2.471,2.471,0,1,0-4.751,1.343,4.121,4.121,0,0,0-1.766,3.2c-.035.031-.075.056-.108.089a2.945,2.945,0,0,0,.1-.723,3.531,3.531,0,0,0-3.719-3.306,4.1,4.1,0,0,0-1.322.225A2.471,2.471,0,1,0,290.252,478a4.121,4.121,0,0,0,0,6.781,2.254,2.254,0,0,0,0,1.483,4.174,4.174,0,0,0-1.057,1.068,2.464,2.464,0,0,0-4.828.417,3.938,3.938,0,0,0-1.062-.429,4.155,4.155,0,0,0,1.518-1.8,3.323,3.323,0,1,0-.068-6.605,4.1,4.1,0,0,0-1.322.225,2.471,2.471,0,1,0-4.751,1.343c-.053.037-.1.08-.152.12-.129-.012-.254-.035-.387-.035a4.1,4.1,0,0,0-1.322.225c-.016-.062-.041-.12-.062-.181a2.435,2.435,0,0,0-2.531-2.948,4.128,4.128,0,1,0-6.488,4.6,4.274,4.274,0,0,0-.837.182,2.457,2.457,0,0,0-3.935-1.329,3.864,3.864,0,0,0-3.007-1.375,4.1,4.1,0,0,0-1.322.225,2.471,2.471,0,1,0-4.751,1.343,4.123,4.123,0,0,0-1.778,3.391c0,.013,0,.025,0,.037a3.428,3.428,0,0,0-1.739.188,2.471,2.471,0,1,0-4.751,1.343,4.115,4.115,0,0,0,3.252,7.413,4.117,4.117,0,0,0,7.78,1.057,4.118,4.118,0,0,0,7.5-.127,4.112,4.112,0,0,0,1.423-.276,4.117,4.117,0,0,0,7.667.276,4.044,4.044,0,0,0,1.733-.429,4.113,4.113,0,0,0,7.357-.4,4.162,4.162,0,0,0,.661-.069,4.128,4.128,0,0,0,7.6.069,4.116,4.116,0,0,0,.96-.142,4.029,4.029,0,0,0,4.475-1.709,4.13,4.13,0,0,0,7.788,2.677,4.044,4.044,0,0,0,1.733-.429,4.113,4.113,0,0,0,7.357-.4,4.043,4.043,0,0,0,1.733-.429,4.089,4.089,0,0,0,6.126,1.187,4.114,4.114,0,0,0,7.36,1.707,4.1,4.1,0,0,0,6.268-1.639A3.323,3.323,0,1,0,334.34,488Zm-73.864-1.706c0,.02-.007.04-.011.06-.03,0-.059-.008-.089-.008a2.464,2.464,0,0,0-.368.037c.007-.015.016-.028.023-.043A4.129,4.129,0,0,0,260.476,486.291ZM295,484.916c-.012-.048-.033-.092-.047-.139a4.152,4.152,0,0,0,1.437-1.745,3.869,3.869,0,0,0,2.873-1.3,2.488,2.488,0,0,0-.049.481,2.455,2.455,0,0,0,.125.742,4.148,4.148,0,0,0-1.536,2.014A4.056,4.056,0,0,0,295,484.916Zm24.752.308c0-.051,0-.1,0-.153a2.462,2.462,0,0,0,.315-.021,4.1,4.1,0,0,0,.787,1.458c-.078.022-.16.035-.236.061a2.492,2.492,0,0,0-.867-1.345Z" transform="translate(-240.237 -427.514)" fill="#f9a825"/>
        <path id="Path_15" data-name="Path 15" d="M237.058,555.745a8.629,8.629,0,0,0-8.617,9.092l5.6,76.952a8.628,8.628,0,0,0,8.617,8.167h72.155a8.629,8.629,0,0,0,8.617-8.168l5.6-76.951a8.629,8.629,0,0,0-8.617-9.092Z" transform="translate(-228.429 -490.303)" fill="#3f3d56"/>
        <rect id="Rectangle_35" data-name="Rectangle 35" width="4.959" height="94.212" transform="translate(12.701 65.442)" fill="#2d83b8"/>
        <rect id="Rectangle_36" data-name="Rectangle 36" width="4.959" height="94.212" transform="translate(26.75 65.442)" fill="#2d83b8"/>
        <rect id="Rectangle_37" data-name="Rectangle 37" width="4.959" height="94.212" transform="translate(40.799 65.442)" fill="#2d83b8"/>
        <rect id="Rectangle_38" data-name="Rectangle 38" width="4.959" height="94.212" transform="translate(54.848 65.442)" fill="#2d83b8"/>
        <rect id="Rectangle_39" data-name="Rectangle 39" width="4.959" height="94.212" transform="translate(68.897 65.442)" fill="#2d83b8"/>
        <rect id="Rectangle_40" data-name="Rectangle 40" width="4.959" height="94.212" transform="translate(82.947 65.442)" fill="#2d83b8"/>
        <path id="_2572ddba-42e8-4159-9036-35cbff74dfb7" data-name="2572ddba-42e8-4159-9036-35cbff74dfb7" d="M844.537,372.36l-2.162-5.265-28.821,11.832a3.56,3.56,0,0,0-2.206,3.292v31.139h5.693v-29.7Z" transform="translate(-675.735 -345.542)" fill="#3f3d56"/>
        <g id="Group_17" data-name="Group 17" transform="translate(135.613 21.553)" clip-path="url(#clip-path-2)">
          <path id="Path_26" data-name="Path 26" d="M0,0H6.207V19.658H0Z" transform="translate(23.278 -5.721)" fill="#ed695a"/>
          <path id="Path_27" data-name="Path 27" d="M0,0H6.207V19.658H0Z" transform="translate(13.451 -1.584)" fill="#ed695a"/>
          <path id="Path_16" data-name="Path 16" d="M605.8,93.282l-4.4,1.293L599.6,73.624H605.8Z" transform="translate(-595.716 -78.052)" fill="#ed695a"/>
          <rect id="Rectangle_43" data-name="Rectangle 43" width="19.658" height="6.207" transform="translate(-5.951 17.557)" fill="#ed695a"/>
          <rect id="Rectangle_44" data-name="Rectangle 44" width="19.658" height="6.207" transform="translate(-5.948 26.095)" fill="#ed695a"/>
          <rect id="Rectangle_45" data-name="Rectangle 45" width="19.658" height="6.207" transform="translate(-5.951 34.632)" fill="#ed695a"/>
        </g>
        <path id="Path_18" data-name="Path 18" d="M526.848,379.11H488.825l-9.313-93.124h55.615Z" transform="translate(-367.956 -219.456)" fill="#2d83b8"/>
        <rect id="Rectangle_46" data-name="Rectangle 46" width="63.632" height="6.207" transform="translate(107.676 64.979)" fill="#3f3d56"/>
        <path id="Path_22" data-name="Path 22" d="M1223.8,843.711a.942.942,0,0,0-.941.94v25.338a.942.942,0,0,0,.941.94h43.618a.942.942,0,0,0,.941-.94V844.651a.942.942,0,0,0-.941-.94Z" transform="translate(-991.507 -711.275)" fill="#3f3d56"/>
        <path id="Path_23" data-name="Path 23" d="M1242.071,853.317a1.754,1.754,0,0,0-1.752,1.752v19.244a1.755,1.755,0,0,0,1.752,1.752h33.869a1.754,1.754,0,0,0,1.752-1.752V855.069a1.754,1.754,0,0,0-1.752-1.752Z" transform="translate(-1004.908 -718.646)" fill="#ed695a"/>
        <rect id="Rectangle_47" data-name="Rectangle 47" width="22.72" height="5.263" transform="translate(210.059 140.782)" fill="#3f3d56"/>
        <path id="Path_24" data-name="Path 24" d="M958.3,843.711a.941.941,0,0,0-.94.94v25.338a.941.941,0,0,0,.94.94h43.618a.941.941,0,0,0,.94-.94V844.651a.941.941,0,0,0-.94-.94Z" transform="translate(-787.781 -711.275)" fill="#3f3d56"/>
        <path id="Path_25" data-name="Path 25" d="M976.579,853.317a1.754,1.754,0,0,0-1.753,1.752v19.244a1.754,1.754,0,0,0,1.753,1.752h33.868a1.754,1.754,0,0,0,1.753-1.752V855.069a1.754,1.754,0,0,0-1.753-1.752Z" transform="translate(-801.18 -718.646)" fill="#2d83b8"/>
      </g>
    </g>
  </g>
</svg>
